<svg width="338" height="223" viewBox="0 0 338 223" fill="none" xmlns="http://www.w3.org/2000/svg">
<g clip-path="url(#clip0_847_6622)">
<path d="M312.207 127.142C312.965 181.316 315.348 223 268.745 223C232.879 223 226.028 198.312 225.119 162.243H233.619C234.719 193.554 240.961 214.681 269.001 214.681C301.183 214.681 304.652 186.853 304.589 147.739L312.207 127.142ZM268.745 0C311.524 -7.30211e-07 313.025 35.1238 312.397 82.7904H304.537C304.983 39.6094 303.293 8.01198 269.001 8.01198C236.169 8.01211 233.221 36.9781 233.421 77.3436C233.317 77.2288 233.207 77.1153 233.091 77.0058C232.101 76.055 230.909 75.5796 229.515 75.5796C228.121 75.5796 226.919 76.055 225.909 77.0058C225.555 77.3456 225.265 77.7108 225.037 78.1007C224.609 32.8377 227.381 7.52852e-05 268.745 0Z" fill="#F0ECE8"/>
<path d="M305.69 92.2999C307.252 93.8643 309.785 93.8643 311.347 92.2999L336.803 66.8058C338.365 65.2413 338.365 62.7049 336.803 61.1404C335.241 59.576 332.708 59.576 331.146 61.1404L308.519 83.8019L285.891 61.1403C284.329 59.5759 281.796 59.5759 280.234 61.1403C278.672 62.7048 278.672 65.2413 280.234 66.8058L305.69 92.2999ZM308.519 81.455H304.519V89.467H308.519H312.519V81.455H308.519Z" fill="#F0ECE8"/>
<path d="M226.357 154.736C227.919 153.172 230.451 153.172 232.013 154.736L257.469 180.23C259.031 181.794 259.031 184.331 257.469 185.895C255.907 187.46 253.375 187.46 251.813 185.895L229.185 163.234L206.557 185.895C204.995 187.46 202.463 187.46 200.901 185.895C199.339 184.331 199.339 181.794 200.901 180.23L226.357 154.736ZM229.185 165.581H225.185V157.569H229.185H233.185V165.581H229.185Z" fill="#F0ECE8"/>
<path d="M281.485 164.367C280.273 164.367 279.192 164.266 278.243 164.063C277.293 163.882 276.637 163.699 276.273 163.517L278.091 157.205C279.828 157.65 281.363 157.812 282.697 157.69C284.03 157.569 285.212 156.972 286.243 155.9C287.293 154.847 288.253 153.138 289.121 150.771L290.455 147.129L273.243 100.271H281L293.849 137.417H294.333L307.182 100.271H314.939L295.182 153.684C294.293 156.092 293.192 158.085 291.879 159.663C290.565 161.261 289.041 162.445 287.303 163.214C285.586 163.982 283.647 164.367 281.485 164.367Z" fill="#F0ECE8"/>
<path d="M266.856 100.271V106.341H241.765V100.271H266.856ZM249.28 146.886V93.8368C249.28 91.1662 249.907 88.9408 251.159 87.1602C252.411 85.3802 254.038 84.0448 256.038 83.1542C258.038 82.2642 260.149 81.8188 262.371 81.8188C264.129 81.8188 265.563 81.9611 266.674 82.2442C267.785 82.5272 268.613 82.7903 269.159 83.0333L267.099 89.2239C266.735 89.1031 266.23 88.9508 265.583 88.7692C264.957 88.587 264.129 88.4955 263.099 88.4955C260.735 88.4955 259.028 89.0924 257.977 90.2862C256.947 91.48 256.432 93.2299 256.432 95.5367V146.886H249.28Z" fill="#F0ECE8"/>
<path d="M225.879 146.886V100.271H233.03V146.886H225.879ZM229.515 92.5017C228.121 92.5017 226.919 92.0263 225.909 91.0756C224.919 90.1248 224.424 88.9818 224.424 87.6464C224.424 86.3111 224.919 85.1681 225.909 84.2167C226.919 83.2659 228.121 82.7905 229.515 82.7905C230.909 82.7905 232.101 83.2659 233.091 84.2167C234.101 85.1681 234.606 86.3111 234.606 87.6464C234.606 88.9818 234.101 90.1248 233.091 91.0756C232.101 92.0263 230.909 92.5017 229.515 92.5017Z" fill="#F0ECE8"/>
<path d="M173.879 164.367V100.271H180.788V107.676H181.637C182.161 106.867 182.889 105.835 183.818 104.58C184.768 103.306 186.121 102.173 187.879 101.181C189.657 100.17 192.061 99.6643 195.091 99.6643C199.01 99.6643 202.465 100.645 205.455 102.608C208.445 104.57 210.778 107.352 212.455 110.954C214.131 114.555 214.97 118.804 214.97 123.7C214.97 128.637 214.131 132.916 212.455 136.537C210.778 140.139 208.455 142.931 205.485 144.913C202.515 146.876 199.091 147.858 195.212 147.858C192.222 147.858 189.828 147.362 188.03 146.37C186.233 145.359 184.849 144.216 183.879 142.941C182.909 141.646 182.161 140.573 181.637 139.724H181.03V164.367H173.879ZM180.909 123.579C180.909 127.099 181.424 130.205 182.455 132.895C183.485 135.566 184.99 137.66 186.97 139.178C188.949 140.675 191.374 141.423 194.243 141.423C197.232 141.423 199.727 140.634 201.727 139.057C203.747 137.458 205.263 135.314 206.273 132.622C207.303 129.912 207.818 126.897 207.818 123.579C207.818 120.301 207.313 117.347 206.303 114.717C205.313 112.066 203.808 109.972 201.788 108.435C199.788 106.877 197.273 106.098 194.243 106.098C191.333 106.098 188.889 106.836 186.909 108.313C184.929 109.77 183.435 111.814 182.424 114.444C181.414 117.054 180.909 120.099 180.909 123.579Z" fill="#F0ECE8"/>
<path d="M139.493 147.979C136.543 147.979 133.866 147.422 131.462 146.309C129.058 145.176 127.149 143.548 125.735 141.423C124.321 139.279 123.613 136.689 123.613 133.654C123.613 130.984 124.139 128.819 125.189 127.16C126.24 125.48 127.644 124.166 129.401 123.214C131.159 122.263 133.099 121.556 135.22 121.09C137.361 120.604 139.513 120.22 141.674 119.937C144.503 119.573 146.795 119.3 148.553 119.117C150.331 118.915 151.624 118.581 152.432 118.116C153.26 117.651 153.674 116.841 153.674 115.688V115.445C153.674 112.451 152.856 110.124 151.22 108.465C149.603 106.806 147.149 105.976 143.856 105.976C140.442 105.976 137.765 106.725 135.826 108.222C133.887 109.719 132.523 111.318 131.735 113.018L124.947 110.589C126.159 107.757 127.775 105.552 129.795 103.973C131.836 102.375 134.058 101.263 136.462 100.635C138.887 99.9881 141.27 99.6643 143.613 99.6643C145.109 99.6643 146.826 99.8459 148.765 100.21C150.725 100.554 152.613 101.273 154.432 102.365C156.27 103.458 157.795 105.106 159.007 107.312C160.22 109.517 160.826 112.471 160.826 116.174V146.886H153.674V140.573H153.311C152.826 141.586 152.018 142.668 150.887 143.821C149.755 144.974 148.25 145.955 146.371 146.765C144.493 147.574 142.199 147.979 139.493 147.979ZM140.583 141.545C143.411 141.545 145.795 140.989 147.735 139.876C149.695 138.763 151.169 137.327 152.159 135.566C153.169 133.806 153.674 131.955 153.674 130.012V123.457C153.371 123.822 152.705 124.156 151.674 124.459C150.664 124.742 149.493 124.995 148.159 125.217C146.846 125.419 145.563 125.602 144.311 125.764C143.078 125.906 142.078 126.027 141.311 126.128C139.452 126.371 137.715 126.765 136.099 127.312C134.503 127.838 133.209 128.637 132.22 129.709C131.25 130.761 130.765 132.198 130.765 134.018C130.765 136.507 131.685 138.389 133.523 139.663C135.381 140.918 137.735 141.545 140.583 141.545Z" fill="#F0ECE8"/>
<path d="M67.0073 146.886L52.8257 100.271H60.3409L70.4013 135.961H70.8867L80.826 100.271H88.462L98.28 135.84H98.7653L108.826 100.271H116.341L102.159 146.886H95.1287L84.9467 111.075H84.22L74.038 146.886H67.0073Z" fill="#F0ECE8"/>
<path d="M36.9546 100.271C36.591 97.1961 35.1162 94.8085 32.5304 93.1093C29.9445 91.4094 26.7728 90.5595 23.0152 90.5595C20.2677 90.5595 17.8637 91.0048 15.8031 91.8948C13.7626 92.7855 12.1667 94.0093 11.0152 95.5669C9.88389 97.1253 9.31822 98.8953 9.31822 100.878C9.31822 102.537 9.71215 103.963 10.5 105.157C11.3081 106.331 12.3384 107.312 13.591 108.101C14.8435 108.87 16.1566 109.507 17.5304 110.013C18.9041 110.499 20.1667 110.893 21.3182 111.196L27.6212 112.896C29.2374 113.321 31.0354 113.908 33.0152 114.656C35.0152 115.405 36.9243 116.427 38.7424 117.721C40.5808 118.996 42.096 120.635 43.2879 122.638C44.4798 124.641 45.0758 127.099 45.0758 130.012C45.0758 133.371 44.197 136.406 42.4394 139.117C40.702 141.828 38.1566 143.983 34.8031 145.581C31.4698 147.179 27.4192 147.979 22.6516 147.979C18.2071 147.979 14.3586 147.261 11.1061 145.824C7.87375 144.388 5.32831 142.385 3.46972 139.815C1.63134 137.246 0.590935 134.261 0.348511 130.862H8.10609C8.30809 133.209 9.09595 135.151 10.4698 136.689C11.8637 138.207 13.6212 139.34 15.7424 140.088C17.8839 140.817 20.1869 141.181 22.6516 141.181C25.5202 141.181 28.096 140.716 30.3788 139.785C32.6616 138.834 34.4698 137.519 35.8031 135.84C37.1364 134.14 37.8031 132.157 37.8031 129.891C37.8031 127.828 37.2273 126.148 36.0758 124.853C34.9243 123.559 33.4091 122.507 31.5304 121.697C29.6516 120.888 27.6212 120.18 25.4394 119.573L17.8031 117.388C12.9546 115.991 9.11615 113.998 6.2879 111.409C3.45962 108.819 2.04548 105.43 2.04548 101.242C2.04548 97.7622 2.98487 94.7277 4.86366 92.1378C6.76262 89.5279 9.30809 87.5049 12.5 86.0681C15.7122 84.6112 19.298 83.8828 23.2576 83.8828C27.2576 83.8828 30.8132 84.6012 33.9243 86.038C37.0354 87.4541 39.5 89.3964 41.3182 91.8647C43.1566 94.3331 44.1263 97.1353 44.2273 100.271H36.9546Z" fill="#F0ECE8"/>
</g>
<defs>
<clipPath id="clip0_847_6622">
<rect width="338" height="223" fill="white"/>
</clipPath>
</defs>
</svg>
